<svg width="32.000000" height="32.000000" viewBox="0 0 32 32" fill="none" xmlns="http://www.w3.org/2000/svg" xmlns:xlink="http://www.w3.org/1999/xlink">
	<desc>
			Created with Pixso.
	</desc>
	<defs>
		<clipPath id="clip308_49">
			<rect id="facebook_black_logo_icon_147136 1" rx="0.000000" width="31.000000" height="31.000000" transform="translate(0.500000 0.500000)" fill="white" fill-opacity="0"/>
		</clipPath>
	</defs>
	<rect id="facebook_black_logo_icon_147136 1" rx="0.000000" width="31.000000" height="31.000000" transform="translate(0.500000 0.500000)" fill="#E7D7BE" fill-opacity="0"/>
	<g clip-path="url(#clip308_49)">
		<path id="Vector" d="M0 16C0 7.16 7.16 0 16 0C24.83 0 32 7.16 32 16C32 24.83 24.83 32 16 32C7.16 32 0 24.83 0 16ZM17.66 25.4L17.66 16.7L20.07 16.7L20.38 13.7L17.66 13.7L17.67 12.2C17.67 11.41 17.74 11 18.86 11L20.37 11L20.37 8L17.96 8C15.08 8 14.06 9.45 14.06 11.9L14.06 13.7L12.26 13.7L12.26 16.7L14.06 16.7L14.06 25.4L17.66 25.4Z" fill="#FAF4EA" fill-opacity="1.000000" fill-rule="evenodd"/>
	</g>
</svg>
